<mxfile host="app.diagrams.net" agent="Mozilla/5.0 (Windows NT 10.0; Win64; x64) AppleWebKit/537.36 (KHTML, like Gecko) Chrome/141.0.0.0 Safari/537.36" version="28.2.7">
  <diagram name="Page-1" id="NzWAlnQ5mYTs2SKRYwXR">
    <mxGraphModel dx="1160" dy="604" grid="1" gridSize="10" guides="1" tooltips="1" connect="1" arrows="1" fold="1" page="1" pageScale="1" pageWidth="2336" pageHeight="1654" math="0" shadow="0">
      <root>
        <mxCell id="0" />
        <mxCell id="1" parent="0" />
        <mxCell id="EnflN7Sm_yYEM59Hh5az-5" value="Series" style="swimlane;fontStyle=1;align=center;verticalAlign=top;childLayout=stackLayout;horizontal=1;startSize=26;horizontalStack=0;resizeParent=1;resizeParentMax=0;resizeLast=0;collapsible=1;marginBottom=0;whiteSpace=wrap;html=1;fillColor=#f5f5f5;strokeColor=#666666;fontColor=#333333;" parent="1" vertex="1">
          <mxGeometry x="841" y="250" width="150" height="238" as="geometry" />
        </mxCell>
        <mxCell id="EnflN7Sm_yYEM59Hh5az-6" value="# id : int&lt;div&gt;# name : String&lt;/div&gt;&lt;div&gt;# originalTitle : String&lt;/div&gt;&lt;div&gt;# posterPath : String&lt;/div&gt;&lt;div&gt;# voteAverage : double&amp;nbsp;&lt;/div&gt;&lt;div&gt;# voteCount : int&lt;/div&gt;&lt;div&gt;# inProduction : boolean&lt;/div&gt;&lt;div&gt;# overview : String&lt;/div&gt;&lt;div&gt;# firstAirDate : String&lt;/div&gt;&lt;div&gt;# lastAirDate : String&lt;/div&gt;&lt;div&gt;# numberOfEpisodes : int&lt;/div&gt;&lt;div&gt;#&amp;nbsp;&lt;span style=&quot;background-color: transparent; color: light-dark(rgb(51, 51, 51), rgb(193, 193, 193));&quot;&gt;numberOfSeasons : int&lt;/span&gt;&lt;/div&gt;&lt;div&gt;# genres : List[Genre]&lt;/div&gt;" style="text;strokeColor=#666666;fillColor=#f5f5f5;align=left;verticalAlign=top;spacingLeft=4;spacingRight=4;overflow=hidden;rotatable=0;points=[[0,0.5],[1,0.5]];portConstraint=eastwest;whiteSpace=wrap;html=1;fontColor=#333333;" parent="EnflN7Sm_yYEM59Hh5az-5" vertex="1">
          <mxGeometry y="26" width="150" height="204" as="geometry" />
        </mxCell>
        <mxCell id="EnflN7Sm_yYEM59Hh5az-7" value="" style="line;strokeWidth=1;fillColor=#f5f5f5;align=left;verticalAlign=middle;spacingTop=-1;spacingLeft=3;spacingRight=3;rotatable=0;labelPosition=right;points=[];portConstraint=eastwest;strokeColor=#666666;fontColor=#333333;" parent="EnflN7Sm_yYEM59Hh5az-5" vertex="1">
          <mxGeometry y="230" width="150" height="8" as="geometry" />
        </mxCell>
        <mxCell id="n48dpCtlHHbmQvhXngaB-2" value="Genre" style="swimlane;fontStyle=1;align=center;verticalAlign=top;childLayout=stackLayout;horizontal=1;startSize=26;horizontalStack=0;resizeParent=1;resizeParentMax=0;resizeLast=0;collapsible=1;marginBottom=0;whiteSpace=wrap;html=1;fillColor=#f5f5f5;strokeColor=#666666;fontColor=#333333;" vertex="1" parent="1">
          <mxGeometry x="580" y="250" width="160" height="118" as="geometry" />
        </mxCell>
        <mxCell id="n48dpCtlHHbmQvhXngaB-3" value="# id : int&lt;div&gt;# name : String&lt;/div&gt;" style="text;strokeColor=#666666;fillColor=#f5f5f5;align=left;verticalAlign=top;spacingLeft=4;spacingRight=4;overflow=hidden;rotatable=0;points=[[0,0.5],[1,0.5]];portConstraint=eastwest;whiteSpace=wrap;html=1;fontColor=#333333;" vertex="1" parent="n48dpCtlHHbmQvhXngaB-2">
          <mxGeometry y="26" width="160" height="84" as="geometry" />
        </mxCell>
        <mxCell id="n48dpCtlHHbmQvhXngaB-4" value="" style="line;strokeWidth=1;fillColor=#f5f5f5;align=left;verticalAlign=middle;spacingTop=-1;spacingLeft=3;spacingRight=3;rotatable=0;labelPosition=right;points=[];portConstraint=eastwest;strokeColor=#666666;fontColor=#333333;" vertex="1" parent="n48dpCtlHHbmQvhXngaB-2">
          <mxGeometry y="110" width="160" height="8" as="geometry" />
        </mxCell>
        <mxCell id="n48dpCtlHHbmQvhXngaB-5" value="generos" style="endArrow=classic;html=1;rounded=0;exitX=0.029;exitY=0.262;exitDx=0;exitDy=0;exitPerimeter=0;entryX=1;entryY=0.5;entryDx=0;entryDy=0;" edge="1" parent="1" source="EnflN7Sm_yYEM59Hh5az-6" target="n48dpCtlHHbmQvhXngaB-2">
          <mxGeometry x="0.3241" y="18" width="50" height="50" relative="1" as="geometry">
            <mxPoint x="770" y="400" as="sourcePoint" />
            <mxPoint x="820" y="350" as="targetPoint" />
            <mxPoint as="offset" />
          </mxGeometry>
        </mxCell>
        <mxCell id="n48dpCtlHHbmQvhXngaB-7" value="*" style="text;html=1;whiteSpace=wrap;strokeColor=none;fillColor=none;align=center;verticalAlign=middle;rounded=0;" vertex="1" parent="1">
          <mxGeometry x="730" y="280" width="60" height="30" as="geometry" />
        </mxCell>
      </root>
    </mxGraphModel>
  </diagram>
</mxfile>
